<svg width="182" height="30" viewBox="0 0 182 30" fill="none" xmlns="http://www.w3.org/2000/svg">
<path fill-rule="evenodd" clip-rule="evenodd" d="M61.9692 0.50293L77.1691 5.14241V23.1464L61.9109 27.3927L48.4765 22.2821L15.4651 30.0001L0 25.3617V6.94306L15.5243 3.24557L28.0486 7.8299L61.9692 0.50293ZM25.9425 8.45071L15.4465 4.60879L3.05407 7.56035L15.4925 11.6201L25.9425 8.45071ZM14.8402 12.7824L1.29045 8.35992V24.3836L14.8402 28.4475V12.7824ZM16.1307 28.501L48.5656 20.9178L61.9726 26.0181L75.8786 22.1481V6.11559L61.9143 1.85323L28.1627 9.1437L16.1307 12.7929V28.501Z" fill="black"/>
<path fill-rule="evenodd" clip-rule="evenodd" d="M61.685 17.6744V1.70166H62.9755V17.719L76.5934 22.1549L76.1989 23.4013L62.3015 18.8743L48.9243 21.9762L48.6367 20.7L61.685 17.6744Z" fill="black"/>
<path fill-rule="evenodd" clip-rule="evenodd" d="M96.0523 0.0233733C96.3326 0.101359 96.5269 0.359791 96.5269 0.654605V12.4364H95.2364V3.0409L91.92 8.71221C91.8045 8.90971 91.5955 9.03136 91.3691 9.03279C91.1427 9.03422 90.9322 8.91521 90.8143 8.71919L87.3647 2.98399V12.4364H86.0742V0.654605C86.0742 0.361302 86.2666 0.103807 86.5449 0.0244628C86.8232 -0.054881 87.1196 0.0632998 87.2702 0.313674L91.3573 7.10866L95.3267 0.320654C95.475 0.0670973 95.7721 -0.054612 96.0523 0.0233733ZM99.2368 1.30915C99.2368 0.947655 99.5257 0.654605 99.8821 0.654605H112.399V1.9637H100.527V5.89098H111.754V7.20007H100.527V11.1274H112.399V12.4364H99.8821C99.5257 12.4364 99.2368 12.1434 99.2368 11.7819V1.30915ZM118.336 1.9637H115.109V0.654605H122.852V1.9637H119.626V11.7819H118.336V1.9637Z" fill="black"/>
<path fill-rule="evenodd" clip-rule="evenodd" d="M122.333 17.6934V27.2083C122.6 27.2523 122.95 27.3019 123.338 27.3359C124.222 27.4133 125.191 27.3983 125.843 27.1421C128.068 26.2671 129.383 24.5794 129.302 22.2774C129.225 20.0798 127.97 18.5909 125.844 17.7595C125.191 17.5044 124.222 17.4895 123.338 17.5665C122.949 17.6003 122.6 17.6496 122.333 17.6934ZM121.688 27.7524L121.548 28.3914C121.253 28.3249 121.043 28.0593 121.043 27.7524V17.1488C121.043 16.8417 121.253 16.5759 121.549 16.5096L121.688 17.1488C121.549 16.5096 121.549 16.5097 121.549 16.5096L121.553 16.5088L121.56 16.5071C121.567 16.5057 121.576 16.5037 121.588 16.5013C121.611 16.4963 121.644 16.4894 121.686 16.4809C121.771 16.464 121.892 16.4409 122.042 16.4154C122.341 16.3644 122.757 16.3032 123.227 16.2622C124.137 16.183 125.362 16.1681 126.308 16.538C128.809 17.5156 130.493 19.4009 130.592 22.231C130.696 25.2031 128.934 27.3304 126.309 28.3627C125.363 28.7348 124.138 28.7198 123.227 28.6401C122.757 28.599 122.341 28.5374 122.042 28.4862C121.892 28.4605 121.771 28.4373 121.686 28.4203C121.643 28.4118 121.61 28.4048 121.587 28.3998C121.575 28.3974 121.566 28.3954 121.56 28.394L121.552 28.3922L121.549 28.3915L121.548 28.3914C121.548 28.3914 121.548 28.3914 121.688 27.7524Z" fill="black"/>
<path fill-rule="evenodd" clip-rule="evenodd" d="M127.485 0.261844C127.744 0.256733 127.981 0.408953 128.087 0.64852L133.12 12.0376L131.942 12.5731L130.435 9.16356H124.923L123.58 12.5497L122.383 12.0611L126.899 0.671971C126.996 0.428406 127.227 0.266954 127.485 0.261844ZM125.442 7.85447H129.857L127.53 2.58906L125.442 7.85447Z" fill="black"/>
<path fill-rule="evenodd" clip-rule="evenodd" d="M141.903 1.16693L137.516 11.9015C137.415 12.1471 137.178 12.3067 136.916 12.3053C136.654 12.3039 136.419 12.1418 136.321 11.8952L132.062 1.1606L133.26 0.67186L136.928 9.92005L140.711 0.665527L141.903 1.16693Z" fill="black"/>
<path fill-rule="evenodd" clip-rule="evenodd" d="M143.758 1.4397C143.758 1.07821 144.047 0.785156 144.403 0.785156H151.242V2.09425H145.048V5.75971H150.21V7.06881H145.048V10.9961H151.242V12.3052H144.403C144.047 12.3052 143.758 12.0121 143.758 11.6506V1.4397Z" fill="black"/>
<path fill-rule="evenodd" clip-rule="evenodd" d="M153.938 0.130371H159.702L159.772 0.146247L159.63 0.784918C159.772 0.146247 159.771 0.146228 159.772 0.146247L159.773 0.146676L159.777 0.147398L159.786 0.149718C159.795 0.151651 159.806 0.15436 159.82 0.157831C159.848 0.164766 159.888 0.174783 159.936 0.187774C160.032 0.213643 160.165 0.25189 160.315 0.301785C160.593 0.395099 161 0.552414 161.306 0.783698C161.56 0.975242 161.72 1.16791 161.852 1.34788C161.9 1.41341 161.939 1.46856 161.974 1.51907C162.042 1.61592 162.098 1.69572 162.185 1.79895L162.256 1.88305L162.296 1.98619L161.695 2.22492C162.296 1.98619 162.296 1.98612 162.296 1.98619L162.296 1.98647L162.296 1.98786L162.298 1.9909L162.301 2.00099C162.305 2.00945 162.309 2.02135 162.315 2.03638C162.326 2.06642 162.341 2.10908 162.36 2.16189C162.397 2.26719 162.446 2.41449 162.497 2.58361C162.593 2.90642 162.711 3.36605 162.727 3.77007C162.738 4.06547 162.698 4.41026 162.663 4.65414C162.644 4.78183 162.625 4.89356 162.61 4.97361C162.603 5.01376 162.597 5.04625 162.592 5.06916C162.59 5.08063 162.588 5.08972 162.587 5.09619L162.586 5.10392L162.585 5.10704L162.585 5.10733C162.585 5.10738 162.585 5.10755 161.953 4.97402C162.583 5.1148 162.583 5.11485 162.583 5.11491L162.583 5.11602L162.583 5.11797L162.581 5.12402L162.577 5.14424C162.573 5.16115 162.567 5.18479 162.56 5.21372C162.546 5.2713 162.526 5.35123 162.5 5.4416C162.452 5.6099 162.373 5.86085 162.265 6.0666C162.032 6.51131 161.812 6.74931 161.466 7.04536C161.252 7.22824 160.972 7.38667 160.777 7.48828C160.674 7.54232 160.581 7.58697 160.515 7.61824C160.481 7.63393 160.454 7.64642 160.434 7.6552C160.425 7.65959 160.417 7.66307 160.411 7.66557L160.404 7.66858L160.402 7.66952L160.401 7.66998C160.401 7.67001 160.401 7.67009 160.147 7.06857L160.401 7.67009L160.367 7.68479L159.989 7.79979L162.746 11.9385L161.677 12.6714L158.642 8.11584H155.501V12.3049L154.211 12.3198L153.938 0.130371ZM155.501 6.80675H158.761L159.923 6.45329C159.936 6.44728 159.953 6.43944 159.973 6.42998C160.027 6.40457 160.103 6.36813 160.186 6.32447C160.366 6.23068 160.537 6.12729 160.634 6.0445C160.89 5.82581 160.989 5.71284 161.125 5.45234C161.167 5.37256 161.217 5.23079 161.26 5.07774C161.28 5.00744 161.297 4.94454 161.307 4.89947C161.313 4.87707 161.317 4.85942 161.32 4.84787L161.322 4.83641L161.322 4.83554L161.326 4.81557C161.33 4.79754 161.335 4.77051 161.341 4.73634C161.354 4.66776 161.37 4.57168 161.386 4.46264C161.42 4.23308 161.444 3.98877 161.437 3.8216C161.429 3.59374 161.353 3.26792 161.262 2.96324C161.219 2.81861 161.176 2.69167 161.144 2.60115C161.139 2.58533 161.134 2.57069 161.129 2.5573C161.034 2.43736 160.951 2.31917 160.887 2.22802C160.86 2.18929 160.836 2.15544 160.816 2.12842C160.73 2.01008 160.654 1.92349 160.535 1.83341C160.406 1.7357 160.168 1.6312 159.91 1.54494C159.791 1.50505 159.683 1.47408 159.605 1.45317C159.586 1.44792 159.568 1.44335 159.553 1.43946H155.501V6.80675ZM161.953 4.97402L162.583 5.11491L162.584 5.11118L162.585 5.10733L161.953 4.97402Z" fill="black"/>
<path fill-rule="evenodd" clip-rule="evenodd" d="M167.96 0.264741C168.792 0.189 169.377 0.222767 170.203 0.575028C170.57 0.731264 170.948 1.00604 171.208 1.2109C171.344 1.31847 171.46 1.4175 171.543 1.48982C171.584 1.52609 171.618 1.55595 171.641 1.57717C171.653 1.58778 171.662 1.59626 171.669 1.60232L171.677 1.60958L171.679 1.61179L171.68 1.6128C171.68 1.61285 171.68 1.61302 171.244 2.09485L171.68 1.61302C171.709 1.64019 171.736 1.67001 171.76 1.70212L172.147 2.22576L171.115 3.01122L170.765 2.53897C170.748 2.52366 170.727 2.50422 170.701 2.4815C170.63 2.41976 170.53 2.33502 170.415 2.24371C170.17 2.05082 169.904 1.86741 169.703 1.78194C169.124 1.53492 168.763 1.50599 168.075 1.56859C167.277 1.64131 166.933 1.68599 166.506 2.06412C166.242 2.29877 166.084 2.50798 165.987 2.721C165.889 2.93428 165.832 3.1918 165.824 3.54978C165.818 3.78714 165.943 4.15191 166.133 4.52775C166.22 4.70058 166.309 4.85175 166.376 4.95966C166.396 4.99323 166.415 5.02231 166.43 5.0462C166.439 5.05267 166.447 5.05959 166.457 5.06692C166.523 5.11844 166.617 5.18962 166.725 5.26774C166.949 5.43 167.203 5.59959 167.397 5.69566C167.675 5.83333 168.096 5.95116 168.483 6.03666C168.669 6.07781 168.836 6.10882 168.955 6.12948C169.014 6.13979 169.062 6.14745 169.094 6.15245C169.11 6.15495 169.122 6.15678 169.13 6.15794L169.138 6.15918L169.14 6.15941C169.154 6.16141 169.168 6.1639 169.182 6.16684L169.05 6.80759C169.182 6.16684 169.182 6.16683 169.182 6.16684L169.182 6.16692L169.183 6.16705L169.184 6.16744L169.19 6.16874L169.212 6.17335C169.23 6.1773 169.255 6.18298 169.286 6.19021C169.349 6.20463 169.436 6.2254 169.534 6.25102C169.723 6.30007 169.986 6.37479 170.2 6.46465C170.234 6.47893 170.268 6.49298 170.302 6.50706C170.621 6.63869 170.945 6.77241 171.303 7.12047C171.649 7.45649 171.867 7.81871 171.993 8.22561C172.113 8.6156 172.14 9.01921 172.147 9.41427C172.155 9.89163 172.116 10.3511 171.964 10.7919C171.808 11.2418 171.549 11.633 171.171 11.9956C170.699 12.4494 169.982 12.6373 169.502 12.7253C169.243 12.7729 169.007 12.7987 168.837 12.8126C168.752 12.8196 168.682 12.8237 168.632 12.8261C168.607 12.8273 168.587 12.8281 168.572 12.8286L168.558 12.829L168.543 12.8297C168.529 12.8303 168.51 12.831 168.485 12.8318C168.435 12.8333 168.365 12.8348 168.279 12.835C168.107 12.8354 167.868 12.8306 167.598 12.8097C167.079 12.7695 166.357 12.6645 165.785 12.3632C164.91 11.903 164.325 11.1756 163.859 10.431L164.949 9.72969C165.362 10.3905 165.797 10.895 166.379 11.2011C166.711 11.3758 167.215 11.4671 167.696 11.5044C167.925 11.5221 168.13 11.5262 168.276 11.5259C168.349 11.5257 168.407 11.5245 168.446 11.5233C168.465 11.5227 168.48 11.5221 168.489 11.5217L168.498 11.5213L168.499 11.5212C168.506 11.5209 168.513 11.5206 168.52 11.5205C168.52 11.5205 168.52 11.5205 168.521 11.5205L168.534 12.1749C168.521 11.5205 168.521 11.5205 168.521 11.5205L168.521 11.5204L168.53 11.5202C168.539 11.5199 168.552 11.5194 168.571 11.5185C168.608 11.5167 168.664 11.5135 168.733 11.5078C168.873 11.4963 169.065 11.4752 169.273 11.4371C169.728 11.3535 170.108 11.2141 170.284 11.045C170.532 10.807 170.667 10.5877 170.746 10.3588C170.828 10.1209 170.863 9.83338 170.857 9.43728C170.85 9.07246 170.825 8.82263 170.761 8.61769C170.703 8.42966 170.605 8.25545 170.41 8.06562C170.235 7.89511 170.124 7.84865 169.795 7.71149C169.767 7.69976 169.738 7.68736 169.706 7.67417C169.581 7.62165 169.392 7.56546 169.214 7.51919C169.13 7.49715 169.054 7.47917 169 7.46674C168.973 7.46055 168.952 7.45579 168.938 7.45265L168.936 7.45218C168.926 7.45068 168.913 7.44871 168.897 7.44627C168.859 7.4403 168.805 7.43152 168.738 7.41991C168.604 7.39676 168.418 7.3621 168.209 7.31583C167.804 7.22649 167.256 7.0825 166.831 6.87225C166.536 6.72589 166.209 6.50275 165.975 6.33289C165.853 6.24495 165.748 6.16522 165.674 6.10734C165.636 6.07834 165.606 6.05465 165.585 6.03795C165.575 6.02959 165.566 6.02297 165.56 6.0183L165.554 6.01277L165.551 6.01044C165.551 6.01041 165.551 6.01031 165.953 5.4985C165.426 5.87629 165.426 5.87619 165.426 5.87609L165.425 5.87534L165.424 5.87397L165.421 5.86997L165.413 5.85709C165.405 5.84637 165.395 5.83143 165.383 5.81263C165.358 5.77507 165.324 5.72187 165.283 5.65593C165.202 5.52467 165.093 5.33975 164.984 5.12488C164.783 4.72532 164.52 4.10828 164.533 3.51993C164.544 3.03188 164.625 2.58599 164.817 2.16814C165.009 1.75005 165.294 1.40045 165.657 1.0783C166.417 0.404845 167.145 0.33875 167.918 0.268535C167.932 0.267273 167.946 0.266009 167.96 0.264741ZM165.953 5.4985L165.426 5.87609C165.461 5.92651 165.503 5.97196 165.551 6.01044L165.953 5.4985Z" fill="black"/>
<path fill-rule="evenodd" clip-rule="evenodd" d="M174.211 1.4397C174.211 1.07821 174.5 0.785156 174.856 0.785156H181.825V2.09425H175.501V11.3888H181.825V12.6979H174.856C174.5 12.6979 174.211 12.4049 174.211 12.0434V1.4397Z" fill="black"/>
<path fill-rule="evenodd" clip-rule="evenodd" d="M180.92 7.07033H175.113V5.76123H180.92V7.07033Z" fill="black"/>
<path fill-rule="evenodd" clip-rule="evenodd" d="M97.8297 21.1948C98.4391 18.4434 100.713 16.4946 103.363 16.4946C104.65 16.4946 105.601 16.8589 106.239 17.2395C106.556 17.4287 106.793 17.6203 106.955 17.7694C107.035 17.844 107.098 17.9083 107.142 17.9566C107.164 17.9808 107.182 18.0011 107.195 18.0168C107.198 18.0199 107.2 18.0229 107.203 18.0257C107.206 18.0298 107.209 18.0335 107.212 18.0368L107.218 18.044L107.22 18.0469L107.221 18.0482L107.222 18.0488C107.222 18.0491 107.222 18.0494 106.718 18.4583C106.214 18.8672 106.214 18.8674 106.215 18.8677L106.215 18.8682L106.216 18.8691L106.217 18.8706L106.218 18.8718L106.217 18.8704C106.214 18.8669 106.207 18.859 106.196 18.8474C106.175 18.8242 106.139 18.7862 106.086 18.738C105.982 18.6417 105.816 18.506 105.584 18.3679C105.125 18.094 104.398 17.8037 103.363 17.8037C101.367 17.8037 99.5771 19.2772 99.0887 21.4818C98.7917 22.8226 99.2007 24.2305 100.047 25.3348C100.896 26.4421 102.131 27.1742 103.391 27.2298C104.746 27.2896 105.413 26.9306 105.732 26.6516C105.898 26.5068 105.991 26.3649 106.042 26.2691C106.067 26.2208 106.081 26.184 106.088 26.1645C106.091 26.1577 106.092 26.153 106.093 26.1508C106.093 26.1499 106.093 26.1494 106.093 26.1493C106.093 26.1493 106.093 26.1505 106.092 26.1532L106.091 26.1583L106.09 26.1617L106.09 26.1636L106.09 26.1646C106.09 26.1651 106.089 26.1656 106.718 26.3128C107.347 26.46 107.347 26.4605 107.347 26.4611L107.346 26.4622L107.346 26.4646L107.345 26.4698C107.344 26.4735 107.343 26.4776 107.341 26.4822C107.339 26.4913 107.336 26.5021 107.333 26.5145C107.326 26.5393 107.316 26.5704 107.303 26.6069C107.277 26.6799 107.238 26.7751 107.181 26.8843C107.066 27.1034 106.877 27.3789 106.575 27.6431C105.958 28.1824 104.948 28.6088 103.335 28.5377C101.627 28.4623 100.063 27.488 99.0285 26.1384C97.9917 24.7859 97.4328 22.9864 97.8297 21.1948ZM106.218 18.8723L106.218 18.8718C106.218 18.8724 106.219 18.8726 106.218 18.8723ZM88.7156 25.1346L87.4481 28.5095L86.2422 28.0434L87.668 24.2471L87.6855 24.2049L91.0344 16.874L92.2089 16.882L97.1126 28.0093L95.9345 28.5436L94.4322 25.1346H88.7156ZM93.8553 23.8256L91.6093 18.729L89.2811 23.8256H93.8553ZM113.1 16.8762L114.281 16.8939L118.926 28.0212L117.743 28.5442L116.237 25.1346H110.785L109.24 28.5494L108.067 28.0035L113.1 16.8762ZM111.377 23.8256H115.773L113.663 18.771L111.377 23.8256Z" fill="black"/>
<path fill-rule="evenodd" clip-rule="evenodd" d="M132.012 17.1492C132.012 16.7877 132.301 16.4946 132.657 16.4946H156.659V17.8037H133.302V21.7965H155.885V23.1055H133.302V27.0983H156.659V28.4074H132.657C132.301 28.4074 132.012 28.1143 132.012 27.7528V17.1492Z" fill="black"/>
<path fill-rule="evenodd" clip-rule="evenodd" d="M159.955 16.9158C160.226 16.8312 160.519 16.9355 160.679 17.1729L164.298 22.5661L168.274 17.1504C168.437 16.9277 168.721 16.8338 168.983 16.9163C169.244 16.9988 169.426 17.2396 169.436 17.5171L169.823 28.1208L168.534 28.1692L168.214 19.4232L164.792 24.085C164.668 24.2548 164.47 24.3529 164.261 24.3485C164.052 24.344 163.859 24.2374 163.741 24.0624L160.79 19.6657V28.145H159.5V17.5413C159.5 17.2541 159.685 17.0004 159.955 16.9158Z" fill="black"/>
<path fill-rule="evenodd" clip-rule="evenodd" d="M175.758 22.8549V28.2766H177.048V22.876L181.424 17.2949L180.414 16.48L176.434 21.5561L172.93 16.5105L171.875 17.2644L175.758 22.8549Z" fill="black"/>
</svg>
